# xmcd
#
# Track frame offsets:
#  150
#  11480
#  22820
#  34570
#  47912
#  63107
#  77197
#  89282
#  101282
#  115587
#  127554
#  141417
#  152577
#  164535
#  174460
#  187132
#  204155
#  217850
#  228252
#  241627
#
# Disc length: 3427 seconds
#
# Revision: 0
# Processed by: cddbd v1.4PL0 Copyright (c) Steve Scherf et al.
# Submitted via: AltoMP3_Maker 3.0
#
DISCID=ea0d6114
DTITLE=Conway Twitty - Conway Twitty 20 Track Collection
DYEAR=1900
DGENRE=
TTITLE0=It's Only Make Believe
TTITLE1=Hello Darlin'
TTITLE2=To See An Angle
TTITLE3=Danny Boy
TTITLE4=Lost Her Love After Our Last Date
TTITLE5=Fifteen Years Ago
TTITLE6=She Needs Someone To Hold Her (When She Cries)
TTITLE7=I Can't See Me Without You
TTITLE8=You've Never Been This Far Before
TTITLE9=I'm Not Through Loving You Yet
TTITLE10=Baby's Gone
TTITLE11=As Soon As I Hang Up The Phone
TTITLE12=(Lying Here) With Linda On My Mind
TTITLE13=I'll Try
TTITLE14=I've Hurt Her More Then She Love's Me
TTITLE15=Don't Cry Joni
TTITLE16=The Games The Daddies Play
TTITLE17=(I Can't Believe) She Still Cares
TTITLE18=After All The Good Is Gone
TTITLE19=Touch The Hand
EXTD=
EXTT0=
EXTT1=
EXTT2=
EXTT3=
EXTT4=
EXTT5=
EXTT6=
EXTT7=
EXTT8=
EXTT9=
EXTT10=
EXTT11=
EXTT12=
EXTT13=
EXTT14=
EXTT15=
EXTT16=
EXTT17=
EXTT18=
EXTT19=
PLAYORDER=
